<svg viewBox="0 0 120 40" xmlns="http://www.w3.org/2000/svg">
  <g transform="translate(10, 8)">
    <!-- Amazon logo -->
    <path d="M58.32 18.64c-5.47 4.03-13.4 6.18-20.24 6.18-9.58 0-18.21-3.54-24.73-9.44-.51-.46-.05-1.09.56-.73 7.04 4.1 15.75 6.56 24.73 6.56 6.06 0 12.73-1.26 18.87-3.86.92-.4 1.7.61.81 1.29z" fill="#FF9900"/>
    <path d="M60.68 15.95c-.7-.89-4.62-.42-6.38-.21-.54.06-.62-.4-.14-.74 3.12-2.2 8.25-1.56 8.84-.83.6.74-.16 5.87-3.09 8.32-.45.38-.88.18-.68-.32.66-1.65 2.14-5.33 1.45-6.22z" fill="#FF9900"/>
    <g fill="#232F3E">
      <path d="M14.36 8.01V7.1c0-.14.1-.23.23-.23h4.04c.13 0 .24.09.24.23v.78c0 .13-.11.3-.3.58l-2.09 2.99c.78-.02 1.6.1 2.3.49.16.09.2.22.21.35v.97c0 .13-.15.29-.3.21-.76-.4-1.77-.44-2.61.01-.14.08-.29-.08-.29-.21v-.92c0-.15 0-.4.15-.62l2.42-3.47h-2.1c-.13 0-.24-.09-.24-.23zm-6.95 5.35h-1.23c-.12-.01-.21-.1-.22-.21V7.11c0-.13.11-.23.24-.23h1.14c.12 0 .22.1.23.22v.79h.02c.31-.77.89-1.13 1.67-1.13.8 0 1.29.36 1.65 1.13.31-.77.99-1.13 1.73-1.13.52 0 1.09.22 1.44.7.39.55.31 1.34.31 2.04v4.08c0 .13-.11.23-.24.23h-1.22c-.12-.01-.22-.11-.22-.23V9.94c0-.27.02-.96-.04-1.22-.09-.44-.36-.56-.71-.56-.29 0-.6.2-.72.51-.13.31-.11.83-.11 1.27v3.64c0 .13-.11.23-.24.23h-1.22c-.13-.01-.22-.11-.22-.23V9.94c0-.72.12-1.77-.77-1.77-.9 0-.86 1.03-.86 1.77v3.64c0 .13-.11.23-.24.23zM28.36 6.76c1.82 0 2.8 1.56 2.8 3.55 0 1.92-1.09 3.44-2.8 3.44-1.78 0-2.75-1.56-2.75-3.51 0-1.96.99-3.48 2.75-3.48zm.01 1.29c-.9 0-1.29 1.11-1.29 2.14s.39 2.27 1.28 2.27c.88 0 1.33-1.11 1.33-2.19 0-1.07-.45-2.22-1.32-2.22zM34.62 13.36h-1.22c-.12-.01-.22-.11-.22-.23V7.1c.01-.12.11-.21.23-.21h1.14c.11 0 .2.08.22.18v.92h.02c.34-.83.82-1.23 1.66-1.23.55 0 1.08.2 1.42.74.32.5.32 1.34.32 1.95v4.19c-.01.11-.11.21-.23.21h-1.23c-.11-.01-.21-.09-.22-.21V9.8c0-.68.08-1.68-.76-1.68-.3 0-.57.2-.71.5-.17.38-.2.76-.2 1.18v3.83c0 .13-.11.23-.24.23z"/>
      <path d="M21.69 9.04c0 .48.01.87-.23 1.3-.19.34-.5.56-.84.56-.47 0-.74-.36-.74-.88 0-1.04.93-1.23 1.81-1.23v.25zm1.23 2.97c-.08.07-.2.08-.29.03-.41-.34-.48-.5-.71-.82-.68.69-1.16.9-2.04.9-1.04 0-1.85-.64-1.85-1.93 0-1 .55-1.69 1.32-2.02.67-.29 1.61-.34 2.33-.42v-.16c0-.29.02-.63-.15-.88-.15-.22-.43-.31-.68-.31-.46 0-.88.24-.98.73-.02.11-.1.22-.21.22l-1.19-.13c-.1-.02-.21-.1-.18-.26.27-1.45 1.59-1.88 2.76-1.88.6 0 1.39.16 1.86.62.6.58.55 1.35.55 2.2v1.99c0 .6.25.86.48 1.18.08.12.1.26-.01.34-.26.22-.73.63-.98.85z"/>
    </g>
  </g>
</svg>