<svg viewBox="0 0 120 40" xmlns="http://www.w3.org/2000/svg">
  <g transform="translate(10, 5)">
    <!-- Google logo simplified -->
    <path d="M15.545 15.82c0 4.254-3.33 7.388-7.42 7.388A7.405 7.405 0 01.703 15.82a7.405 7.405 0 017.422-7.388c2.054 0 3.91.817 5.254 2.143l-1.479 1.479c-.899-.849-2.12-1.511-3.775-1.511-3.084 0-5.499 2.485-5.499 5.277s2.415 5.277 5.499 5.277c2.828 0 4.436-1.378 4.91-3.33H8.125v-2.107h6.968c.089.451.129.903.129 1.46z" fill="#4285F4"/>
    <path d="M25.903 13.456c2.813 0 4.793 2.17 4.793 4.856 0 2.67-1.98 4.84-4.793 4.84-2.829 0-4.809-2.17-4.809-4.84 0-2.686 1.98-4.856 4.809-4.856zm0 1.784c-1.56 0-2.765 1.237-2.765 3.072 0 1.82 1.205 3.056 2.765 3.056 1.544 0 2.749-1.237 2.749-3.056 0-1.835-1.205-3.072-2.749-3.072z" fill="#EA4335"/>
    <path d="M40.549 13.456c2.813 0 4.793 2.17 4.793 4.856 0 2.67-1.98 4.84-4.793 4.84-2.829 0-4.809-2.17-4.809-4.84 0-2.686 1.98-4.856 4.809-4.856zm0 1.784c-1.56 0-2.765 1.237-2.765 3.072 0 1.82 1.205 3.056 2.765 3.056 1.544 0 2.749-1.237 2.749-3.056 0-1.835-1.205-3.072-2.749-3.072z" fill="#FBBC04"/>
    <path d="M54.868 13.68v8.928c0 3.67-2.17 5.181-4.744 5.181-2.415 0-3.863-1.624-4.418-2.943l1.914-.788c.338.82 1.173 1.784 2.504 1.784 1.64 0 2.652-.998 2.652-2.894v-.708h-.08c-.483.613-1.429 1.141-2.604 1.141-2.488 0-4.761-2.154-4.761-4.84 0-2.701 2.273-4.887 4.761-4.887 1.175 0 2.121.528 2.604 1.125h.08v-.898h2.092zm-1.945 4.84c0-1.687-1.125-2.927-2.556-2.927-1.463 0-2.685 1.24-2.685 2.927 0 1.672 1.222 2.894 2.685 2.894 1.431 0 2.556-1.222 2.556-2.894z" fill="#4285F4"/>
    <path d="M59.677 8.948v13.832h-2.122V8.948h2.122z" fill="#34A853"/>
    <path d="M69.261 19.425l1.673.998c-.54.82-1.85 2.234-4.114 2.234-2.813 0-4.824-2.17-4.824-4.84 0-2.878 2.027-4.856 4.584-4.856 2.572 0 3.831 2.043 4.241 3.151l.226.564-6.623 2.749c.507.998 1.301 1.511 2.41 1.511 1.11 0 1.883-.548 2.427-1.511zm-5.197-1.752l4.434-1.835c-.242-.628-.982-1.062-1.85-1.062-1.11 0-2.653.982-2.584 2.897z" fill="#EA4335"/>
  </g>
</svg>