<svg viewBox="0 0 120 40" xmlns="http://www.w3.org/2000/svg">
  <g transform="translate(10, 10)">
    <!-- HubSpot logo -->
    <g fill="#FF7A59">
      <!-- Hub icon -->
      <circle cx="10" cy="10" r="3"/>
      <path d="M10 4a6 6 0 100 12 6 6 0 000-12zm0 10a4 4 0 110-8 4 4 0 010 8z"/>
      <path d="M10 7a3 3 0 100 6 3 3 0 000-6zm0 4a1 1 0 110-2 1 1 0 010 2z"/>
    </g>
    <!-- HubSpot text -->
    <g fill="#2E475D">
      <path d="M30 6h1.6v3.4h3.8V6H37v8.4h-1.6v-3.6h-3.8v3.6H30V6zm9.4 3v3c0 .6.3.9.8.9s.8-.3.8-.9V9h1.5v3.2c0 1.4-.8 2.2-2.3 2.2s-2.3-.8-2.3-2.2V9h1.5zm7.7-.2c1.6 0 2.7 1.2 2.7 2.8s-1.1 2.8-2.7 2.8c-.7 0-1.3-.3-1.6-.7v.7h-1.4V6h1.5v3.1c.3-.4.9-.7 1.5-.7zm-.3 4.2c.9 0 1.5-.7 1.5-1.6s-.6-1.6-1.5-1.6-1.5.7-1.5 1.6.6 1.6 1.5 1.6zm7.7-4.2c1.1 0 2.1.5 2.5 1.4l-1.2.7c-.2-.5-.7-.8-1.3-.8-.3 0-.6.1-.6.4 0 .7 3.3.3 3.3 2.3 0 1.1-.9 1.7-2.2 1.7-1.2 0-2.2-.5-2.6-1.5l1.2-.7c.3.6.8.9 1.5.9.5 0 .8-.2.8-.5 0-.8-3.3-.3-3.3-2.3 0-1 .8-1.6 1.9-1.6zm7.2 0c1.6 0 2.8 1.2 2.8 2.8s-1.2 2.8-2.8 2.8c-.7 0-1.3-.3-1.6-.7v2.3h-1.5V9h1.4v.6c.3-.4.9-.8 1.7-.8zm-.3 4.2c.9 0 1.5-.7 1.5-1.6s-.6-1.6-1.5-1.6-1.5.7-1.5 1.6.6 1.6 1.5 1.6zm4.1-2.4c0-1.6 1.2-2.8 2.8-2.8s2.8 1.2 2.8 2.8-1.2 2.8-2.8 2.8-2.8-1.2-2.8-2.8zm4.1 0c0-.9-.6-1.6-1.3-1.6s-1.3.7-1.3 1.6.6 1.6 1.3 1.6 1.3-.7 1.3-1.6zm5.8 1.7c.3 0 .5-.1.7-.2v1.2c-.3.2-.7.3-1.2.3-1 0-1.5-.5-1.5-1.5V10h-.8V9h.8V7.5l1.5-.4V9h1v1h-1v2.1c0 .3.2.5.5.5z"/>
    </g>
  </g>
</svg>