<svg viewBox="0 0 120 40" xmlns="http://www.w3.org/2000/svg">
  <g transform="translate(35, 10)">
    <!-- IBM logo simplified -->
    <g fill="#1F70C1">
      <!-- I -->
      <rect x="0" y="0" width="10" height="2"/>
      <rect x="0" y="3" width="10" height="2"/>
      <rect x="2" y="6" width="6" height="2"/>
      <rect x="2" y="9" width="6" height="2"/>
      <rect x="2" y="12" width="6" height="2"/>
      <rect x="2" y="15" width="6" height="2"/>
      <rect x="0" y="18" width="10" height="2"/>
      
      <!-- B -->
      <rect x="14" y="0" width="10" height="2"/>
      <rect x="14" y="3" width="10" height="2"/>
      <rect x="14" y="6" width="4" height="2"/>
      <rect x="20" y="6" width="4" height="2"/>
      <rect x="14" y="9" width="10" height="2"/>
      <rect x="14" y="12" width="4" height="2"/>
      <rect x="20" y="12" width="4" height="2"/>
      <rect x="14" y="15" width="10" height="2"/>
      <rect x="14" y="18" width="10" height="2"/>
      
      <!-- M -->
      <rect x="28" y="0" width="10" height="2"/>
      <rect x="40" y="0" width="10" height="2"/>
      <rect x="28" y="3" width="10" height="2"/>
      <rect x="40" y="3" width="10" height="2"/>
      <rect x="28" y="6" width="4" height="2"/>
      <rect x="34" y="6" width="4" height="2"/>
      <rect x="40" y="6" width="4" height="2"/>
      <rect x="46" y="6" width="4" height="2"/>
      <rect x="28" y="9" width="4" height="2"/>
      <rect x="34" y="9" width="4" height="2"/>
      <rect x="40" y="9" width="4" height="2"/>
      <rect x="46" y="9" width="4" height="2"/>
      <rect x="28" y="12" width="4" height="2"/>
      <rect x="46" y="12" width="4" height="2"/>
      <rect x="28" y="15" width="4" height="2"/>
      <rect x="46" y="15" width="4" height="2"/>
      <rect x="28" y="18" width="4" height="2"/>
      <rect x="46" y="18" width="4" height="2"/>
    </g>
  </g>
</svg>