<svg viewBox="0 0 120 40" xmlns="http://www.w3.org/2000/svg">
  <g transform="translate(10, 10)">
    <!-- Microsoft logo -->
    <rect x="0" y="0" width="9" height="9" fill="#F25022"/>
    <rect x="11" y="0" width="9" height="9" fill="#7FBA00"/>
    <rect x="0" y="11" width="9" height="9" fill="#00A4EF"/>
    <rect x="11" y="11" width="9" height="9" fill="#FFB900"/>
    <!-- Microsoft text -->
    <path d="M30.5 6.5h1.8l2.4 6.8 2.5-6.8h1.8v9.5h-1.4V8.7l-2.5 7.3h-1l-2.5-7.3v7.3h-1.1V6.5zm10.5 0h1.4v9.5h-1.4V6.5zm3.5 1.7c0-.5.4-.9.9-.9s.9.4.9.9-.4.9-.9.9-.9-.4-.9-.9zm.2 2.3h1.4v5.5h-1.4v-5.5zm8.8 4.2c-.4.9-1.3 1.5-2.4 1.5-1.5 0-2.6-1.1-2.6-2.9 0-1.7 1.1-2.9 2.6-2.9 1.1 0 2 .6 2.3 1.4l-1.1.5c-.2-.5-.7-.8-1.2-.8-.9 0-1.4.7-1.4 1.8s.5 1.8 1.4 1.8c.6 0 1-.3 1.2-.8l1.2.4zm3.5-4.2v1.4c-.5-.1-.8-.1-1-.1-.8 0-1.2.5-1.2 1.5v2.8h-1.4v-5.5h1.4v.8c.3-.6.8-.9 1.5-.9.3 0 .5 0 .7 0zm1.5 2.8c0-1.7 1.2-2.9 2.8-2.9s2.8 1.2 2.8 2.9-1.2 2.9-2.8 2.9-2.8-1.2-2.8-2.9zm4.2 0c0-1.1-.6-1.8-1.4-1.8s-1.4.7-1.4 1.8.6 1.8 1.4 1.8 1.4-.7 1.4-1.8zm6.7-1.4c-.2-.4-.6-.6-1.1-.6-.4 0-.7.2-.7.5 0 .3.3.5.9.6l.6.1c1 .2 1.6.7 1.6 1.5 0 1-.9 1.7-2.1 1.7-1.1 0-2-.5-2.3-1.4l1.1-.5c.2.5.7.8 1.3.8.5 0 .8-.2.8-.5 0-.3-.2-.4-.8-.5l-.6-.1c-1.1-.2-1.7-.7-1.7-1.6 0-.9.8-1.6 2-1.6 1 0 1.8.5 2.1 1.2l-1.1.4zm2.2 1.4c0-1.7 1.2-2.9 2.8-2.9s2.8 1.2 2.8 2.9-1.2 2.9-2.8 2.9-2.8-1.2-2.8-2.9zm4.2 0c0-1.1-.6-1.8-1.4-1.8s-1.4.7-1.4 1.8.6 1.8 1.4 1.8 1.4-.7 1.4-1.8zm6 2.8v-3.4h-.8v-1.1h.8v-.8c0-1.1.5-1.7 1.5-1.7.3 0 .5 0 .7.1v1.1c-.1 0-.3-.1-.5-.1-.4 0-.6.2-.6.6v.8h1.1v1.1h-1.1v3.4h-1.1zm5.8-4.5v-1h1.4v1h1v1.1h-1v2.1c0 .4.2.6.6.6.2 0 .3 0 .4-.1v1.1c-.2.1-.4.1-.7.1-1 0-1.6-.5-1.6-1.5v-2.3h-.8v-1.1h.7z" fill="#5E5E5E"/>
  </g>
</svg>