<svg viewBox="0 0 120 40" xmlns="http://www.w3.org/2000/svg">
  <g transform="translate(5, 8)">
    <!-- Salesforce cloud logo -->
    <path d="M29.4 3.8c1.4-1.4 3.3-2.3 5.4-2.3 3.3 0 6.1 2.1 7.1 5 1.1-.5 2.3-.8 3.6-.8 5.1 0 9.2 4.1 9.2 9.2s-4.1 9.2-9.2 9.2c-.7 0-1.4-.1-2.1-.2-1.1 2.6-3.7 4.5-6.7 4.5-1.6 0-3.1-.5-4.3-1.4-1.1 1.2-2.7 2-4.5 2-2.3 0-4.3-1.3-5.3-3.2-.7.2-1.4.3-2.2.3-4 0-7.3-3.3-7.3-7.3 0-1.7.6-3.3 1.6-4.5-.4-1-.6-2.1-.6-3.2 0-4.6 3.7-8.3 8.3-8.3 2.6 0 4.9 1.2 6.4 3-.5-.1-1-.1-1.5-.1-2.1 0-4 .8-5.4 2.1z" fill="#00A1E0"/>
    <!-- Salesforce text -->
    <g fill="#032E61">
      <path d="M60.2 13.1c0-.7.5-1.2 1.2-1.2.7 0 1.2.5 1.2 1.2 0 .7-.5 1.2-1.2 1.2-.7 0-1.2-.5-1.2-1.2zm2.1 0c0-.5-.4-.9-.9-.9s-.9.4-.9.9.4.9.9.9.9-.4.9-.9zm-.7-.6c.2 0 .4.1.4.3 0 .2-.1.3-.3.3l.3.5h-.3l-.3-.5h-.1v.5h-.2v-1.1h.5zm0 .5c.1 0 .2 0 .2-.2 0-.1-.1-.2-.2-.2h-.3v.4h.3z"/>
      <path d="M63.1 17.2c-.4.4-1 .5-1.5.5-.6 0-1.1-.2-1.5-.5l.7-.8c.2.2.5.3.8.3s.5-.1.5-.3c0-.2-.1-.3-.6-.4-.8-.2-1.3-.4-1.3-1.2 0-.7.6-1.3 1.5-1.3.6 0 1.1.2 1.4.5l-.6.8c-.2-.2-.5-.3-.8-.3-.2 0-.4.1-.4.3 0 .2.2.3.6.4.8.2 1.3.5 1.3 1.2 0 .8-.6 1.3-1.6 1.3-.6 0-1.2-.2-1.6-.5l.7-.8c.3.2.6.3.9.3.3 0 .5-.1.5-.3z"/>
      <path d="M67.1 15.5c0 .7-.5 1.2-1.1 1.2-.3 0-.5-.1-.7-.3v1.5h-1.1v-4.2h1.1v.3c.2-.2.4-.3.7-.3.6 0 1.1.5 1.1 1.2v.6zm-1.1-.6c-.3 0-.6.3-.6.6s.3.6.6.6.6-.3.6-.6-.3-.6-.6-.6z"/>
      <path d="M68.2 13.1h1.1v4.2h-1.1z"/>
      <path d="M72.4 15.8c-.2.2-.5.3-.8.3-.6 0-1-.4-1-1s.4-1 1-1c.3 0 .6.1.8.3l.7-.8c-.4-.4-.9-.5-1.5-.5-1.1 0-2.1.9-2.1 2.1s.9 2.1 2.1 2.1c.6 0 1.1-.2 1.5-.5l-.7-.8z"/>
      <path d="M75.5 16.2c-.2.2-.5.4-.9.4s-.7-.1-.9-.4c-.1-.2-.2-.4-.2-.6h3.1c0-.1.1-.3.1-.5 0-1.1-.8-2-1.9-2s-2 .9-2 2.1.9 2.1 2 2.1c.8 0 1.4-.4 1.8-.9l-.8-.7c-.1.2-.3.3-.5.4zm-1.8-1.5c.4 0 .7.3.8.6h-1.7c.1-.3.4-.6.9-.6z"/>
      <path d="M79.3 13.7h-.5v.9h.5v1.5c0 .8.5 1.2 1.3 1.2.3 0 .5 0 .7-.1v-.9c-.1 0-.3.1-.4.1-.3 0-.5-.1-.5-.4v-1.4h.9v-.9h-.9v-1.1l-1.1.3v.8z"/>
      <path d="M84.2 15.1c0-1.1-.8-2-2-2s-2 .9-2 2.1.8 2.1 2 2.1 2-.9 2-2.1v-.1zm-2 1.1c-.5 0-.9-.4-.9-1s.4-1 .9-1 .9.4.9 1-.4 1-.9 1z"/>
      <path d="M87 13.4c-.2-.2-.5-.3-.8-.3-.6 0-1.2.5-1.2 1.4v2.8h1.1v-2.5c0-.4.2-.6.5-.6.2 0 .3.1.4.2l.6-.9c-.2-.1-.4-.1-.6-.1z"/>
      <path d="M90.5 16c-.2.3-.5.5-.9.5s-.8-.2-1-.5c-.1-.2-.1-.4-.1-.6s0-.4.1-.6c.2-.3.5-.5 1-.5s.8.2.9.5l.8-.7c-.4-.5-1-.8-1.8-.8-1.2 0-2.1.9-2.1 2.1s.9 2.1 2.1 2.1c.8 0 1.4-.3 1.8-.8l-.8-.7z"/>
      <path d="M93.9 16.2c-.2.2-.5.4-.9.4s-.7-.1-.9-.4c-.1-.2-.2-.4-.2-.6h3.1c0-.1.1-.3.1-.5 0-1.1-.8-2-1.9-2s-2 .9-2 2.1.9 2.1 2 2.1c.8 0 1.4-.4 1.8-.9l-.8-.7c-.1.2-.3.3-.5.4zm-1.8-1.5c.4 0 .7.3.8.6h-1.7c.1-.3.4-.6.9-.6z"/>
    </g>
  </g>
</svg>